<svg width="91.839" height="122.88" xmlns="http://www.w3.org/2000/svg" xml:space="preserve" enable-background="new 0 0 91.839 122.88" version="1.1">

 <g>
  <title>Layer 1</title>
  <g transform="rotate(-180 45.92 61.4395)" id="svg_1">
   <path id="svg_2" d="m81.75,64.617l-40.385,0c-1.738,0 -3.147,-1.423 -3.147,-3.178c0,-1.756 1.409,-3.179 3.147,-3.179l40.383,0l-13.189,-15.105c-1.146,-1.31 -1.025,-3.311 0.271,-4.469c1.297,-1.159 3.278,-1.037 4.425,0.273l17.798,20.383c1.065,1.216 1.037,3.029 -0.011,4.21l-17.788,20.368c-1.146,1.311 -3.128,1.433 -4.425,0.273c-1.296,-1.158 -1.417,-3.16 -0.271,-4.47l13.192,-15.106l0,0zm-10.909,35.012c0,-1.756 1.423,-3.179 3.178,-3.179c1.756,0 3.179,1.423 3.179,3.179l0,14.242c0,2.475 -1.017,4.729 -2.648,6.36c-1.633,1.632 -3.887,2.648 -6.36,2.648l-59.181,0c-2.475,0 -4.73,-1.014 -6.363,-2.646c-1.63,-1.63 -2.646,-3.881 -2.646,-6.362l0,-104.862c0,-2.48 1.013,-4.733 2.644,-6.365c1.631,-1.631 3.884,-2.644 6.365,-2.644l59.18,0c2.479,0 4.731,1.016 6.362,2.646c1.633,1.633 2.646,3.889 2.646,6.363l0,14.241c0,1.755 -1.423,3.178 -3.179,3.178c-1.755,0 -3.178,-1.423 -3.178,-3.178l0,-14.241c0,-0.722 -0.301,-1.385 -0.785,-1.869c-0.482,-0.482 -1.144,-0.783 -1.867,-0.783l-59.179,0c-0.726,0 -1.389,0.3 -1.87,0.782c-0.483,0.481 -0.782,1.144 -0.782,1.87l0,104.862c0,0.724 0.301,1.385 0.783,1.867c0.484,0.484 1.147,0.785 1.869,0.785l59.18,0c0.72,0 1.381,-0.302 1.865,-0.786c0.485,-0.484 0.787,-1.146 0.787,-1.866l0,-14.242l0,0z"/>
  </g>
 </g>
</svg>