<svg xmlns="http://www.w3.org/2000/svg" shape-rendering="geometricPrecision" text-rendering="geometricPrecision" image-rendering="optimizeQuality" fill-rule="evenodd" clip-rule="evenodd" viewBox="0 0 512 406.656"><path fill-rule="nonzero" d="M92.263 0h327.474C470.498 0 512 41.501 512 92.262v222.131c0 50.749-41.513 92.263-92.263 92.263H92.263C41.502 406.656 0 365.154 0 314.393V92.262C0 41.493 41.493 0 92.263 0zm289.379 268.984H276.589v-33.616h37.398v-55.677l-37.398 2.519v-33.616l48.323-10.926h33.198v97.7h23.532v33.616zm-177.748 0v-46.432H172.38v46.432h-42.022V137.668h42.022v46.433h31.514v-46.433h42.022v131.316h-42.022zM419.737 30.098H92.263c-34.165 0-62.165 28-62.165 62.164v222.131c0 34.154 28.011 62.164 62.165 62.164h327.474c34.148 0 62.165-28.016 62.165-62.164V92.262c0-34.153-28.011-62.164-62.165-62.164z"/></svg>